TITLE ""
FILE "DISC1Track25.mp3" MP3
  TRACK 01 AUDIO
    TITLE "DISC1Track25_01"
    INDEX 01 00:00:00
  TRACK 02 AUDIO
    TITLE "DISC1Track25_02"
    INDEX 01 00:02:74
  TRACK 03 AUDIO
    TITLE "DISC1Track25_03"
    INDEX 01 00:03:20
  TRACK 04 AUDIO
    TITLE "DISC1Track25_04"
    INDEX 01 00:05:58
  TRACK 05 AUDIO
    TITLE "DISC1Track25_05"
    INDEX 01 00:08:37
  TRACK 06 AUDIO
    TITLE "DISC1Track25_06"
    INDEX 01 00:11:08
  TRACK 07 AUDIO
    TITLE "DISC1Track25_07"
    INDEX 01 00:11:34
  TRACK 08 AUDIO
    TITLE "DISC1Track25_08"
    INDEX 01 00:15:27
  TRACK 09 AUDIO
    TITLE "DISC1Track25_09"
    INDEX 01 00:19:21
  TRACK 10 AUDIO
    TITLE "DISC1Track25_10"
    INDEX 01 00:23:07
  TRACK 11 AUDIO
    TITLE "DISC1Track25_11"
    INDEX 01 00:23:31
  TRACK 12 AUDIO
    TITLE "DISC1Track25_12"
    INDEX 01 00:27:50
  TRACK 13 AUDIO
    TITLE "DISC1Track25_13"
    INDEX 01 00:31:13
  TRACK 14 AUDIO
    TITLE "DISC1Track25_14"
    INDEX 01 00:34:44
  TRACK 15 AUDIO
    TITLE "DISC1Track25_15"
    INDEX 01 00:34:72
  TRACK 16 AUDIO
    TITLE "DISC1Track25_16"
    INDEX 01 00:38:25
  TRACK 17 AUDIO
    TITLE "DISC1Track25_17"
    INDEX 01 00:40:41
  TRACK 18 AUDIO
    TITLE "DISC1Track25_18"
    INDEX 01 00:42:42
  TRACK 19 AUDIO
    TITLE "DISC1Track25_19"
    INDEX 01 00:42:73
  TRACK 20 AUDIO
    TITLE "DISC1Track25_20"
    INDEX 01 00:44:41
  TRACK 21 AUDIO
    TITLE "DISC1Track25_21"
    INDEX 01 00:46:30
  TRACK 22 AUDIO
    TITLE "DISC1Track25_22"
    INDEX 01 00:48:15
  TRACK 23 AUDIO
    TITLE "DISC1Track25_23"
    INDEX 01 00:48:37
  TRACK 24 AUDIO
    TITLE "DISC1Track25_24"
    INDEX 01 00:51:04
  TRACK 25 AUDIO
    TITLE "DISC1Track25_25"
    INDEX 01 00:53:03
  TRACK 26 AUDIO
    TITLE "DISC1Track25_26"
    INDEX 01 00:54:71
  TRACK 27 AUDIO
    TITLE "DISC1Track25_27"
    INDEX 01 00:55:17
  TRACK 28 AUDIO
    TITLE "DISC1Track25_28"
    INDEX 01 00:56:50
  TRACK 29 AUDIO
    TITLE "DISC1Track25_29"
    INDEX 01 00:58:25
  TRACK 30 AUDIO
    TITLE "DISC1Track25_30"
    INDEX 01 00:59:70
  TRACK 31 AUDIO
    TITLE "DISC1Track25_31"
    INDEX 01 01:00:18
  TRACK 32 AUDIO
    TITLE "DISC1Track25_32"
    INDEX 01 01:03:38
  TRACK 33 AUDIO
    TITLE "DISC1Track25_33"
    INDEX 01 01:05:61
  TRACK 34 AUDIO
    TITLE "DISC1Track25_34"
    INDEX 01 01:08:02
  TRACK 35 AUDIO
    TITLE "DISC1Track25_35"
    INDEX 01 01:08:26
  TRACK 36 AUDIO
    TITLE "DISC1Track25_36"
    INDEX 01 01:10:72
  TRACK 37 AUDIO
    TITLE "DISC1Track25_37"
    INDEX 01 01:13:09
  TRACK 38 AUDIO
    TITLE "DISC1Track25_38"
    INDEX 01 01:15:10
  TRACK 39 AUDIO
    TITLE "DISC1Track25_39"
    INDEX 01 01:15:36
  TRACK 40 AUDIO
    TITLE "DISC1Track25_40"
    INDEX 01 01:19:18
  TRACK 41 AUDIO
    TITLE "DISC1Track25_41"
    INDEX 01 01:21:71
  TRACK 42 AUDIO
    TITLE "DISC1Track25_42"
    INDEX 01 01:24:60
  TRACK 43 AUDIO
    TITLE "DISC1Track25_43"
    INDEX 01 01:25:03
  TRACK 44 AUDIO
    TITLE "DISC1Track25_44"
    INDEX 01 01:27:66
  TRACK 45 AUDIO
    TITLE "DISC1Track25_45"
    INDEX 01 01:31:15
  TRACK 46 AUDIO
    TITLE "DISC1Track25_46"
    INDEX 01 01:34:37
  TRACK 47 AUDIO
    TITLE "DISC1Track25_47"
    INDEX 01 01:34:58
  TRACK 48 AUDIO
    TITLE "DISC1Track25_48"
    INDEX 01 01:37:47
  TRACK 49 AUDIO
    TITLE "DISC1Track25_49"
    INDEX 01 01:39:54
  TRACK 50 AUDIO
    TITLE "DISC1Track25_50"
    INDEX 01 01:41:57
